<?xml version="1.0" encoding="utf-8"?>
<!-- Generator: Adobe Illustrator 16.0.0, SVG Export Plug-In . SVG Version: 6.00 Build 0)  -->
<!DOCTYPE svg PUBLIC "-//W3C//DTD SVG 1.1//EN" "http://www.w3.org/Graphics/SVG/1.1/DTD/svg11.dtd">
<svg version="1.1" id="Layer_1" xmlns="http://www.w3.org/2000/svg" xmlns:xlink="http://www.w3.org/1999/xlink" x="0px" y="0px"
	 width="100px" height="80px" viewBox="0 0 100 80" enable-background="new 0 0 100 80" xml:space="preserve">
<g>
	<g>
		<defs>
			<path id="SVGID_1_" d="M25.339,24.891c-5.586-6.219-8.432-3.268-10.118-1.688C20.701,28.895,23.547,26.471,25.339,24.891z"/>
		</defs>
		<clipPath id="SVGID_2_">
			<use xlink:href="#SVGID_1_"  overflow="visible"/>
		</clipPath>
		<rect x="9.951" y="15.834" clip-path="url(#SVGID_2_)" width="20.657" height="16.216"/>
	</g>
</g>
<g>
	<g>
		<defs>
			<path id="SVGID_3_" d="M20.49,17.723c1.581-1.792,4.004-4.637-1.686-10.118C17.118,9.292,14.272,12.137,20.49,17.723z"/>
		</defs>
		<clipPath id="SVGID_4_">
			<use xlink:href="#SVGID_3_"  overflow="visible"/>
		</clipPath>
		<rect x="11.398" y="2.336" clip-path="url(#SVGID_4_)" width="16.253" height="20.657"/>
	</g>
</g>
<g>
	<g>
		<defs>
			<path id="SVGID_5_" d="M13.324,12.875C7.737,6.658,4.893,9.608,3.206,11.189C8.687,16.88,11.532,14.456,13.324,12.875z"/>
		</defs>
		<clipPath id="SVGID_6_">
			<use xlink:href="#SVGID_5_"  overflow="visible"/>
		</clipPath>
		<rect x="-2.063" y="3.819" clip-path="url(#SVGID_6_)" width="20.657" height="16.216"/>
	</g>
</g>
<g>
	<g>
		<defs>
			<path id="SVGID_7_" d="M14.483,11.716c1.581-1.792,4.005-4.638-1.686-10.119C11.11,3.179,8.265,6.131,14.483,11.716z"/>
		</defs>
		<clipPath id="SVGID_8_">
			<use xlink:href="#SVGID_7_"  overflow="visible"/>
		</clipPath>
		<rect x="5.391" y="-3.671" clip-path="url(#SVGID_8_)" width="16.252" height="20.657"/>
	</g>
</g>
<g>
	<g>
		<defs>
			<path id="SVGID_9_" d="M9.318,7.711c0.633-1.792,0.211-3.795-1.264-5.27C6.579,0.966,4.47,0.65,2.785,1.177
				c-0.633,1.792-0.211,3.794,1.265,5.27C5.524,7.921,7.527,8.343,9.318,7.711z"/>
		</defs>
		<clipPath id="SVGID_10_">
			<use xlink:href="#SVGID_9_"  overflow="visible"/>
		</clipPath>
		<rect x="-2.77" y="-4.332" clip-path="url(#SVGID_10_)" width="17.643" height="17.597"/>
	</g>
</g>
<g>
	<g>
		<defs>
			<path id="SVGID_11_" d="M84.884,23.414c-1.685-1.581-4.531-4.532-10.117,1.687C76.559,26.682,79.404,29.105,84.884,23.414z"/>
		</defs>
		<clipPath id="SVGID_12_">
			<use xlink:href="#SVGID_11_"  overflow="visible"/>
		</clipPath>
		<rect x="69.497" y="16.045" clip-path="url(#SVGID_12_)" width="20.657" height="16.217"/>
	</g>
</g>
<g>
	<g>
		<defs>
			<path id="SVGID_13_" d="M87.31,1.915c-5.692,5.479-3.269,8.325-1.688,10.117C91.841,6.447,88.891,3.496,87.31,1.915z"/>
		</defs>
		<clipPath id="SVGID_14_">
			<use xlink:href="#SVGID_13_"  overflow="visible"/>
		</clipPath>
		<rect x="78.462" y="-3.355" clip-path="url(#SVGID_14_)" width="16.216" height="20.657"/>
	</g>
</g>
<g>
	<g>
		<defs>
			<path id="SVGID_15_" d="M96.9,11.4c-1.688-1.581-4.532-4.533-10.117,1.686C88.573,14.667,91.419,17.091,96.9,11.4z"/>
		</defs>
		<clipPath id="SVGID_16_">
			<use xlink:href="#SVGID_15_"  overflow="visible"/>
		</clipPath>
		<rect x="81.512" y="4.03" clip-path="url(#SVGID_16_)" width="20.657" height="16.216"/>
	</g>
</g>
<g>
	<g>
		<defs>
			<path id="SVGID_17_" d="M90.893,17.407c-1.688-1.581-4.532-4.532-10.117,1.687C82.566,20.674,85.412,23.099,90.893,17.407z"/>
		</defs>
		<clipPath id="SVGID_18_">
			<use xlink:href="#SVGID_17_"  overflow="visible"/>
		</clipPath>
		<rect x="75.504" y="10.038" clip-path="url(#SVGID_18_)" width="20.657" height="16.216"/>
	</g>
</g>
<g>
	<g>
		<defs>
			<path id="SVGID_19_" d="M95.95,6.658c1.477-1.476,1.897-3.479,1.265-5.27c-1.791-0.633-3.793-0.211-5.269,1.264
				c-1.476,1.476-1.897,3.479-1.266,5.27C92.474,8.554,94.476,8.132,95.95,6.658z"/>
		</defs>
		<clipPath id="SVGID_20_">
			<use xlink:href="#SVGID_19_"  overflow="visible"/>
		</clipPath>
		<rect x="85.127" y="-4.167" clip-path="url(#SVGID_20_)" width="17.643" height="17.643"/>
	</g>
</g>
<g>
	<g>
		<defs>
			<path id="SVGID_21_" d="M26.498,23.73c1.581-1.791,4.005-4.636-1.686-10.117C23.125,15.299,20.279,18.145,26.498,23.73z"/>
		</defs>
		<clipPath id="SVGID_22_">
			<use xlink:href="#SVGID_21_"  overflow="visible"/>
		</clipPath>
		<rect x="17.405" y="8.343" clip-path="url(#SVGID_22_)" width="16.252" height="20.656"/>
	</g>
</g>
<g>
	<defs>
		<path id="SVGID_23_" d="M70.552,26.049c-11.593-10.539-29.194-10.539-40.787,0l20.551,20.446L70.552,26.049z"/>
	</defs>
	<clipPath id="SVGID_24_">
		<use xlink:href="#SVGID_23_"  overflow="visible"/>
	</clipPath>
	<rect x="24.495" y="12.875" clip-path="url(#SVGID_24_)" width="51.327" height="38.89"/>
</g>
<g>
	<g>
		<defs>
			<path id="SVGID_25_" d="M81.302,7.921c-5.691,5.48-3.269,8.327-1.688,10.119C85.833,12.454,82.883,9.502,81.302,7.921z"/>
		</defs>
		<clipPath id="SVGID_26_">
			<use xlink:href="#SVGID_25_"  overflow="visible"/>
		</clipPath>
		<rect x="72.455" y="2.652" clip-path="url(#SVGID_26_)" width="16.215" height="20.657"/>
	</g>
</g>
<g>
	<g>
		<defs>
			<path id="SVGID_27_" d="M9.213,17.091c5.48,5.691,8.326,3.268,10.118,1.687C13.745,12.664,10.9,15.51,9.213,17.091z"/>
		</defs>
		<clipPath id="SVGID_28_">
			<use xlink:href="#SVGID_27_"  overflow="visible"/>
		</clipPath>
		<rect x="3.943" y="9.764" clip-path="url(#SVGID_28_)" width="20.657" height="16.174"/>
	</g>
</g>
<g>
	<g>
		<defs>
			<path id="SVGID_29_" d="M75.294,13.929c-5.69,5.48-3.267,8.326-1.686,10.118C79.826,18.46,76.875,15.51,75.294,13.929z"/>
		</defs>
		<clipPath id="SVGID_30_">
			<use xlink:href="#SVGID_29_"  overflow="visible"/>
		</clipPath>
		<rect x="66.447" y="8.66" clip-path="url(#SVGID_30_)" width="16.216" height="20.657"/>
	</g>
</g>
<g>
	<defs>
		<path id="SVGID_31_" d="M30.187,71.263C41.78,81.38,59.169,81.274,70.657,70.841L50.421,50.816L30.187,71.263z"/>
	</defs>
	<clipPath id="SVGID_32_">
		<use xlink:href="#SVGID_31_"  overflow="visible"/>
	</clipPath>
	<rect x="24.917" y="45.547" clip-path="url(#SVGID_32_)" width="51.009" height="38.482"/>
</g>
<g>
	<defs>
		<path id="SVGID_33_" d="M48.313,48.604L27.552,28.052c-9.802,10.75-10.118,27.191-1.581,38.679l-12.12,12.226h4.321l9.802-9.907
			L48.313,48.604z"/>
	</defs>
	<clipPath id="SVGID_34_">
		<use xlink:href="#SVGID_33_"  overflow="visible"/>
	</clipPath>
	<rect x="8.581" y="22.782" clip-path="url(#SVGID_34_)" width="45.003" height="61.443"/>
</g>
<g>
	<defs>
		<path id="SVGID_35_" d="M73.187,28.052L52.53,48.604l20.34,20.551l9.696,9.907h4.32L74.767,66.73
			C83.304,55.243,82.987,38.802,73.187,28.052z"/>
	</defs>
	<clipPath id="SVGID_36_">
		<use xlink:href="#SVGID_35_"  overflow="visible"/>
	</clipPath>
	<rect x="47.26" y="22.782" clip-path="url(#SVGID_36_)" width="44.896" height="61.548"/>
</g>
</svg>
